<svg width="16" height="15" viewBox="0 0 16 15" fill="none" xmlns="http://www.w3.org/2000/svg">
<mask id="mask0_8868_35" style="mask-type:alpha" maskUnits="userSpaceOnUse" x="0" y="0" width="16" height="15">
<rect x="0.5" width="15" height="15" rx="7.5" fill="#D9D9D9"/>
</mask>
<g mask="url(#mask0_8868_35)">
<path d="M16.4001 -1.6001H-0.649983C-2.36208 -1.6001 -3.75 -0.212173 -3.75 1.49992V13.9C-3.75 15.6121 -2.36208 17 -0.649983 17H16.4001C18.1122 17 19.5001 15.6121 19.5001 13.9V1.49992C19.5001 -0.212173 18.1122 -1.6001 16.4001 -1.6001Z" fill="#459A45"/>
<path opacity="0.15" d="M16.4001 -1.6001H-0.649983C-2.36197 -1.6001 -3.75 -0.212065 -3.75 1.49992V13.9C-3.75 15.612 -2.36197 17 -0.649983 17H16.4001C18.1121 17 19.5001 15.612 19.5001 13.9V1.49992C19.5001 -0.212065 18.1121 -1.6001 16.4001 -1.6001ZM18.7251 13.9C18.7251 15.1818 17.682 16.225 16.4001 16.225H-0.649983C-1.93184 16.225 -2.975 15.1818 -2.975 13.9V1.49992C-2.975 0.218062 -1.93184 -0.825094 -0.649983 -0.825094H16.4001C17.682 -0.825094 18.7251 0.218062 18.7251 1.49992V13.9Z" fill="black"/>
<path d="M-1.83203 7.69954L7.87722 13.8996L17.5865 7.69954L7.87722 1.49951L-1.83203 7.69954Z" fill="#FEDF00"/>
<path d="M7.87502 11.5743C10.0151 11.5743 11.75 9.83935 11.75 7.69924C11.75 5.55912 10.0151 3.82422 7.87502 3.82422C5.73491 3.82422 4 5.55912 4 7.69924C4 9.83935 5.73491 11.5743 7.87502 11.5743Z" fill="#0A2172"/>
<path d="M6.32501 6.53817C5.55233 6.53817 4.80755 6.65365 4.09843 6.85515C4.03798 7.1264 4.00078 7.4054 4 7.69448C4.7316 7.45035 5.51203 7.3124 6.32424 7.3124C8.28035 7.3124 10.0567 8.0843 11.3765 9.33361C11.4943 9.08096 11.5904 8.81746 11.6524 8.53846C10.2233 7.29535 8.3625 6.53662 6.32424 6.53662L6.32501 6.53817Z" fill="white"/>
<path opacity="0.2" d="M16.3985 -0.825684H-0.65155C-1.93573 -0.825684 -2.97656 0.215147 -2.97656 1.49933V2.27433C-2.97656 0.990151 -1.93573 -0.0506795 -0.65155 -0.0506795H16.3985C17.6827 -0.0506795 18.7236 0.990151 18.7236 2.27433V1.49933C18.7236 0.215147 17.6827 -0.825684 16.3985 -0.825684Z" fill="white"/>
</g>
</svg>
